{"title":"Malini and Co (2015) - TELUGU - DesiCamRip - 1CD - Xvid - MP3","uid":12330405,"size":728898344,"categoryP":"video","categoryS":"movies","magnet":"?xt=urn:btih:73d521afda931f2af6682763a3c5243a3c4b6c24&amp;dn=Malini+and+Co+%282015%29+-+TELUGU+-+DesiCamRip+-+1CD+-+Xvid+-+MP3&amp;tr=udp%3A%2F%2Ftracker.openbittorrent.com%3A80&amp;tr=udp%3A%2F%2Fopen.demonii.com%3A1337&amp;tr=udp%3A%2F%2Ftracker.coppersurfer.tk%3A6969&amp;tr=udp%3A%2F%2Fexodus.desync.com%3A6969","seeders":8,"leechers":2,"uploader":"SS132203","files":2,"time":1441182648,"description":"Malini and Co (2015) - TELUGU - DesiCamRip - 1CD - Xvid - MP3\n &lt;a href=&quot;\nhttp://imgsparrow.co/image/875&quot; rel=&quot;nofollow&quot; target=&quot;_NEW&quot;&gt;\nhttp://imgsparrow.co/image/875&lt;/a&gt;\n &lt;a href=&quot;\nhttp://imgsparrow.co/image/9b&quot; rel=&quot;nofollow&quot; target=&quot;_NEW&quot;&gt;\nhttp://imgsparrow.co/image/9b&lt;/a&gt;\n\nInfo : - \n\nFormat                      : AVI\nFormat/Info                 : Audio Video Interleave\nFile size                   : 695 MiB\nDuration                    : 1h 28mn\nOverall bit rate            : 1 100 Kbps\n\nVideo\nID                          : 0\nFormat                      : MPEG-4 Visual\nFormat profile              : Advanced Simple@L5\nFormat settings, BVOP       : 2\nFormat settings, QPel       : Yes\nFormat settings, GMC        : No warppoints\nFormat settings, Matrix     : Default (H.263)\nCodec ID                    : XVID\nCodec ID/Hint               : XviD\nDuration                    : 1h 28mn\nBit rate                    : 1 030 Kbps\nWidth                       : 608 pixels\nHeight                      : 256 pixels\nDisplay aspect ratio        : 2.40:1\nFrame rate                  : 25.000 fps\nColor space                 : YUV\nChroma subsampling          : 4:2:0\nBit depth                   : 8 bits\nScan type                   : Progressive\nCompression mode            : Lossy\nBits/(Pixel*Frame)          : 0.265\nStream size                 : 651 MiB (94%)\nWriting library             : XviD 67\n\nAudio\nID                          : 1\nFormat                      : MPEG Audio\nFormat version              : Version 2\nFormat profile              : Layer 3\nMode                        : Joint stereo\nMode extension              : MS Stereo\nCodec ID                    : 55\nCodec ID/Hint               : MP3\nDuration                    : 1h 28mn\nBit rate mode               : Constant\nBit rate                    : 64.0 Kbps\nChannel(s)                  : 2 channels\nSampling rate               : 24.0 KHz\nCompression mode            : Lossy\nStream size                 : 40.4 MiB (6%)\n\nScreens : - \n &lt;a href=&quot;\nhttp://imgsparrow.co/image/87q&quot; rel=&quot;nofollow&quot; target=&quot;_NEW&quot;&gt;\nhttp://imgsparrow.co/image/87q&lt;/a&gt; &lt;a href=&quot;\nhttp://imgsparrow.co/image/87z&quot; rel=&quot;nofollow&quot; target=&quot;_NEW&quot;&gt;\nhttp://imgsparrow.co/image/87z&lt;/a&gt; &lt;a href=&quot;\nhttp://imgsparrow.co/image/877&quot; rel=&quot;nofollow&quot; target=&quot;_NEW&quot;&gt;\nhttp://imgsparrow.co/image/877&lt;/a&gt; &lt;a href=&quot;\nhttp://imgsparrow.co/image/87k&quot; rel=&quot;nofollow&quot; target=&quot;_NEW&quot;&gt;\nhttp://imgsparrow.co/image/87k&lt;/a&gt; &lt;a href=&quot;\nhttp://imgsparrow.co/image/87n&quot; rel=&quot;nofollow&quot; target=&quot;_NEW&quot;&gt;\nhttp://imgsparrow.co/image/87n&lt;/a&gt; &lt;a href=&quot;\nhttp://imgsparrow.co/image/87y&quot; rel=&quot;nofollow&quot; target=&quot;_NEW&quot;&gt;\nhttp://imgsparrow.co/image/87y&lt;/a&gt;\n &lt;a href=&quot;\nhttp://imgsparrow.co/image/N2&quot; rel=&quot;nofollow&quot; target=&quot;_NEW&quot;&gt;\nhttp://imgsparrow.co/image/N2&lt;/a&gt;","torrent":{"xt":"urn:btih:73d521afda931f2af6682763a3c5243a3c4b6c24","amp;dn":"Malini+and+Co+%282015%29+-+TELUGU+-+DesiCamRip+-+1CD+-+Xvid+-+MP3","amp;tr":["udp%3A%2F%2Ftracker.openbittorrent.com%3A80","udp%3A%2F%2Fopen.demonii.com%3A1337","udp%3A%2F%2Ftracker.coppersurfer.tk%3A6969","udp%3A%2F%2Fexodus.desync.com%3A6969"],"infoHash":"73d521afda931f2af6682763a3c5243a3c4b6c24","infoHashBuffer":{"type":"Buffer","data":[115,213,33,175,218,147,31,42,246,104,39,99,163,197,36,58,60,75,108,36]},"announce":[],"urlList":[]}}